<svg id="visual" viewBox="0 0 900 300" width="900" height="300" xmlns="http://www.w3.org/2000/svg" xmlns:xlink="http://www.w3.org/1999/xlink" version="1.1"><path d="M0 156L10.7 155.3C21.3 154.7 42.7 153.3 64.2 155.2C85.7 157 107.3 162 128.8 170.7C150.3 179.3 171.7 191.7 193 199C214.3 206.3 235.7 208.7 257 199.2C278.3 189.7 299.7 168.3 321.2 159.7C342.7 151 364.3 155 385.8 161C407.3 167 428.7 175 450 172C471.3 169 492.7 155 514.2 147C535.7 139 557.3 137 578.8 140.5C600.3 144 621.7 153 643 166.3C664.3 179.7 685.7 197.3 707 205.5C728.3 213.7 749.7 212.3 771.2 203.8C792.7 195.3 814.3 179.7 835.8 172.2C857.3 164.7 878.7 165.3 889.3 165.7L900 166L900 301L889.3 301C878.7 301 857.3 301 835.8 301C814.3 301 792.7 301 771.2 301C749.7 301 728.3 301 707 301C685.7 301 664.3 301 643 301C621.7 301 600.3 301 578.8 301C557.3 301 535.7 301 514.2 301C492.7 301 471.3 301 450 301C428.7 301 407.3 301 385.8 301C364.3 301 342.7 301 321.2 301C299.7 301 278.3 301 257 301C235.7 301 214.3 301 193 301C171.7 301 150.3 301 128.8 301C107.3 301 85.7 301 64.2 301C42.7 301 21.3 301 10.7 301L0 301Z" fill="#20d0ff"></path><path d="M0 212L10.7 214C21.3 216 42.7 220 64.2 209.5C85.7 199 107.3 174 128.8 172.3C150.3 170.7 171.7 192.3 193 193.2C214.3 194 235.7 174 257 173.8C278.3 173.7 299.7 193.3 321.2 193.8C342.7 194.3 364.3 175.7 385.8 176.8C407.3 178 428.7 199 450 199.3C471.3 199.7 492.7 179.3 514.2 180.7C535.7 182 557.3 205 578.8 213.8C600.3 222.7 621.7 217.3 643 205.2C664.3 193 685.7 174 707 162C728.3 150 749.7 145 771.2 148.5C792.7 152 814.3 164 835.8 164.7C857.3 165.3 878.7 154.7 889.3 149.3L900 144L900 301L889.3 301C878.7 301 857.3 301 835.8 301C814.3 301 792.7 301 771.2 301C749.7 301 728.3 301 707 301C685.7 301 664.3 301 643 301C621.7 301 600.3 301 578.8 301C557.3 301 535.7 301 514.2 301C492.7 301 471.3 301 450 301C428.7 301 407.3 301 385.8 301C364.3 301 342.7 301 321.2 301C299.7 301 278.3 301 257 301C235.7 301 214.3 301 193 301C171.7 301 150.3 301 128.8 301C107.3 301 85.7 301 64.2 301C42.7 301 21.3 301 10.7 301L0 301Z" fill="#70daff"></path><path d="M0 233L10.7 233.7C21.3 234.3 42.7 235.7 64.2 237.5C85.7 239.3 107.3 241.7 128.8 239.7C150.3 237.7 171.7 231.3 193 220.2C214.3 209 235.7 193 257 195.8C278.3 198.7 299.7 220.3 321.2 220C342.7 219.7 364.3 197.3 385.8 184.8C407.3 172.3 428.7 169.7 450 173.8C471.3 178 492.7 189 514.2 189.2C535.7 189.3 557.3 178.7 578.8 183.5C600.3 188.3 621.7 208.7 643 219.3C664.3 230 685.7 231 707 228.3C728.3 225.7 749.7 219.3 771.2 213.2C792.7 207 814.3 201 835.8 194.2C857.3 187.3 878.7 179.7 889.3 175.8L900 172L900 301L889.3 301C878.7 301 857.3 301 835.8 301C814.3 301 792.7 301 771.2 301C749.7 301 728.3 301 707 301C685.7 301 664.3 301 643 301C621.7 301 600.3 301 578.8 301C557.3 301 535.7 301 514.2 301C492.7 301 471.3 301 450 301C428.7 301 407.3 301 385.8 301C364.3 301 342.7 301 321.2 301C299.7 301 278.3 301 257 301C235.7 301 214.3 301 193 301C171.7 301 150.3 301 128.8 301C107.3 301 85.7 301 64.2 301C42.7 301 21.3 301 10.7 301L0 301Z" fill="#9ce3ff"></path><path d="M0 202L10.7 202C21.3 202 42.7 202 64.2 208.5C85.7 215 107.3 228 128.8 234.3C150.3 240.7 171.7 240.3 193 241.8C214.3 243.3 235.7 246.7 257 245.8C278.3 245 299.7 240 321.2 239.5C342.7 239 364.3 243 385.8 238.8C407.3 234.7 428.7 222.3 450 218.8C471.3 215.3 492.7 220.7 514.2 226.7C535.7 232.7 557.3 239.3 578.8 240.3C600.3 241.3 621.7 236.7 643 238.2C664.3 239.7 685.7 247.3 707 249.5C728.3 251.7 749.7 248.3 771.2 240.3C792.7 232.3 814.3 219.7 835.8 216.3C857.3 213 878.7 219 889.3 222L900 225L900 301L889.3 301C878.7 301 857.3 301 835.8 301C814.3 301 792.7 301 771.2 301C749.7 301 728.3 301 707 301C685.7 301 664.3 301 643 301C621.7 301 600.3 301 578.8 301C557.3 301 535.7 301 514.2 301C492.7 301 471.3 301 450 301C428.7 301 407.3 301 385.8 301C364.3 301 342.7 301 321.2 301C299.7 301 278.3 301 257 301C235.7 301 214.3 301 193 301C171.7 301 150.3 301 128.8 301C107.3 301 85.7 301 64.2 301C42.7 301 21.3 301 10.7 301L0 301Z" fill="#c0edff"></path><path d="M0 235L10.7 235.5C21.3 236 42.7 237 64.2 242C85.7 247 107.3 256 128.8 260.7C150.3 265.3 171.7 265.7 193 259.8C214.3 254 235.7 242 257 237.7C278.3 233.3 299.7 236.7 321.2 239.7C342.7 242.7 364.3 245.3 385.8 244C407.3 242.7 428.7 237.3 450 237.3C471.3 237.3 492.7 242.7 514.2 243C535.7 243.3 557.3 238.7 578.8 238.5C600.3 238.3 621.7 242.7 643 242.3C664.3 242 685.7 237 707 240.5C728.3 244 749.7 256 771.2 259.2C792.7 262.3 814.3 256.7 835.8 250.5C857.3 244.3 878.7 237.7 889.3 234.3L900 231L900 301L889.3 301C878.7 301 857.3 301 835.8 301C814.3 301 792.7 301 771.2 301C749.7 301 728.3 301 707 301C685.7 301 664.3 301 643 301C621.7 301 600.3 301 578.8 301C557.3 301 535.7 301 514.2 301C492.7 301 471.3 301 450 301C428.7 301 407.3 301 385.8 301C364.3 301 342.7 301 321.2 301C299.7 301 278.3 301 257 301C235.7 301 214.3 301 193 301C171.7 301 150.3 301 128.8 301C107.3 301 85.7 301 64.2 301C42.7 301 21.3 301 10.7 301L0 301Z" fill="#e1f6ff"></path><path d="M0 279L10.7 275.5C21.3 272 42.7 265 64.2 265.8C85.7 266.7 107.3 275.3 128.8 275.3C150.3 275.3 171.7 266.7 193 264.2C214.3 261.7 235.7 265.3 257 267.7C278.3 270 299.7 271 321.2 270.3C342.7 269.7 364.3 267.3 385.8 266.3C407.3 265.3 428.7 265.7 450 267C471.3 268.3 492.7 270.7 514.2 268.8C535.7 267 557.3 261 578.8 263.3C600.3 265.7 621.7 276.3 643 279.7C664.3 283 685.7 279 707 277C728.3 275 749.7 275 771.2 275.7C792.7 276.3 814.3 277.7 835.8 273.8C857.3 270 878.7 261 889.3 256.5L900 252L900 301L889.3 301C878.7 301 857.3 301 835.8 301C814.3 301 792.7 301 771.2 301C749.7 301 728.3 301 707 301C685.7 301 664.3 301 643 301C621.7 301 600.3 301 578.8 301C557.3 301 535.7 301 514.2 301C492.7 301 471.3 301 450 301C428.7 301 407.3 301 385.8 301C364.3 301 342.7 301 321.2 301C299.7 301 278.3 301 257 301C235.7 301 214.3 301 193 301C171.7 301 150.3 301 128.8 301C107.3 301 85.7 301 64.2 301C42.7 301 21.3 301 10.7 301L0 301Z" fill="#ffffff"></path></svg>